HIERARCHY
ROOT Hips
{
	OFFSET 0.00000 0.00000 0.00000
	CHANNELS 6 Xposition Yposition Zposition Zrotation Yrotation Xrotation 
	JOINT LHipJoint
	{
		OFFSET 0 0 0
		CHANNELS 3 Zrotation Yrotation Xrotation
		JOINT LeftUpLeg
		{
			OFFSET 1.53139 -1.83434 0.76626
			CHANNELS 3 Zrotation Yrotation Xrotation
			JOINT LeftLeg
			{
				OFFSET 2.56112 -7.03663 0.00000
				CHANNELS 3 Zrotation Yrotation Xrotation
				JOINT LeftFoot
				{
					OFFSET 2.59983 -7.14299 0.00000
					CHANNELS 3 Zrotation Yrotation Xrotation
					JOINT LeftToeBase
					{
						OFFSET 0.13742 -0.37757 2.00054
						CHANNELS 3 Zrotation Yrotation Xrotation
						End Site
						{
							OFFSET 0.00000 -0.00000 1.02897
						}
					}
				}
			}
		}
	}
	JOINT RHipJoint
	{
		OFFSET 0 0 0
		CHANNELS 3 Zrotation Yrotation Xrotation
		JOINT RightUpLeg
		{
			OFFSET -1.40122 -1.83435 0.76627
			CHANNELS 3 Zrotation Yrotation Xrotation
			JOINT RightLeg
			{
				OFFSET -2.54052 -6.98003 0.00000
				CHANNELS 3 Zrotation Yrotation Xrotation
				JOINT RightFoot
				{
					OFFSET -2.63179 -7.23079 0.00000
					CHANNELS 3 Zrotation Yrotation Xrotation
					JOINT RightToeBase
					{
						OFFSET -0.24131 -0.66299 2.03908
						CHANNELS 3 Zrotation Yrotation Xrotation
						End Site
						{
							OFFSET -0.00000 -0.00000 1.07391
						}
					}
				}
			}
		}
	}
	JOINT LowerBack
	{
		OFFSET 0 0 0
		CHANNELS 3 Zrotation Yrotation Xrotation
		JOINT Spine
		{
			OFFSET 0.01174 2.10302 -0.29778
			CHANNELS 3 Zrotation Yrotation Xrotation
			JOINT Spine1
			{
				OFFSET 0.00772 2.13227 -0.01247
				CHANNELS 3 Zrotation Yrotation Xrotation
				JOINT Neck
				{
					OFFSET 0 0 0
					CHANNELS 3 Zrotation Yrotation Xrotation
					JOINT Neck1
					{
						OFFSET -0.09219 1.60848 0.31481
						CHANNELS 3 Zrotation Yrotation Xrotation
						JOINT Head
						{
							OFFSET 0.13974 1.65456 -0.31134
							CHANNELS 3 Zrotation Yrotation Xrotation
							End Site
							{
								OFFSET 0.04742 1.69515 -0.14578
							}
						}
					}
				}
				JOINT LeftShoulder
				{
					OFFSET 0 0 0
					CHANNELS 3 Zrotation Yrotation Xrotation
					JOINT LeftArm
					{
						OFFSET 3.24909 1.02882 -0.23993
						CHANNELS 3 Zrotation Yrotation Xrotation
						JOINT LeftForeArm
						{
							OFFSET 5.32955 -0.00000 -0.00000
							CHANNELS 3 Zrotation Yrotation Xrotation
							JOINT LeftHand
							{
								OFFSET 3.69232 -0.00000 -0.00000
								CHANNELS 3 Zrotation Yrotation Xrotation
								JOINT LeftFingerBase
								{
									OFFSET 0 0 0
									CHANNELS 3 Zrotation Yrotation Xrotation
									JOINT LeftHandIndex1
									{
										OFFSET 0.53660 -0.00000 -0.00000
										CHANNELS 3 Zrotation Yrotation Xrotation
										End Site
										{
											OFFSET 0.43262 -0.00000 -0.00000
										}
									}
								}
								JOINT LThumb
								{
									OFFSET 0 0 0
									CHANNELS 3 Zrotation Yrotation Xrotation
									End Site
									{
										OFFSET 0.43922 -0.00000 0.43922
									}
								}
							}
						}
					}
				}
				JOINT RightShoulder
				{
					OFFSET 0 0 0
					CHANNELS 3 Zrotation Yrotation Xrotation
					JOINT RightArm
					{
						OFFSET -3.21387 0.93002 -0.34594
						CHANNELS 3 Zrotation Yrotation Xrotation
						JOINT RightForeArm
						{
							OFFSET -5.23431 -0.00000 0.00000
							CHANNELS 3 Zrotation Yrotation Xrotation
							JOINT RightHand
							{
								OFFSET -3.55301 -0.00000 -0.00000
								CHANNELS 3 Zrotation Yrotation Xrotation
								JOINT RightFingerBase
								{
									OFFSET 0 0 0
									CHANNELS 3 Zrotation Yrotation Xrotation
									JOINT RightHandIndex1
									{
										OFFSET -0.77252 -0.00000 -0.00000
										CHANNELS 3 Zrotation Yrotation Xrotation
										End Site
										{
											OFFSET -0.62283 -0.00000 -0.00000
										}
									}
								}
								JOINT RThumb
								{
									OFFSET 0 0 0
									CHANNELS 3 Zrotation Yrotation Xrotation
									End Site
									{
										OFFSET -0.63234 -0.00000 0.63234
									}
								}
							}
						}
					}
				}
			}
		}
	}
}
MOTION
Frames: 15
Frame Time: 0.117647
0.00 0.00 0.00 0 0 0 0 0 0 -21 0 0 0 0 0 0 0 0 0 0 0 0 0 0 21 0 0 0 0 0 0 0 0 0 0 0 0 0 0 0 0 0 0 0 0 0 0 -16 0 0 21 0 0 11 0 0 0 -8 0 0 0 0 0 0 0 0 0 0 0 0 0 0 0 0 0 0 0 0 8 0 0 0 0 0 0 0 0 0 0 0 0 0 0 0 0 0
0.00 0.00 0.00 1.9218 3.2413 2.7831 0.0000 0.0000 0.0000 -19.9476 -10.2966 -14.9703 3.8560 11.9663 35.6128 0.2652 -8.5501 -10.2208 1.0416 -6.4906 -18.2146 0.0000 0.0000 0.0000 22.4398 1.5980 -17.3796 -2.2313 -9.3320 26.8396 -0.2830 -2.4532 -11.2569 -0.4027 -4.0743 11.2858 0.2665 0.5496 12.0060 0.7433 0.8022 2.0468 0.4998 0.3972 -4.5929 -12.9228 -4.3199 -17.9088 4.5270 -3.5036 38.5558 3.6759 -2.6756 17.6481 -0.0000 0.0000 0.0000 -88.8677 2.7967 24.8585 24.7019 -35.8978 -8.1145 -0.0000 -0.0000 2.0734 19.6726 25.6085 8.7841 -7.1250 0.0000 -0.0000 -11.0606 56.6132 -3.1758 -0.0000 0.0000 0.0000 86.7997 -0.8034 15.4360 -20.6854 31.4593 -5.8849 0.0000 0.0000 3.7063 -12.0054 8.7512 -1.8531 7.1250 -0.0000 -0.0000 10.7063 -21.0989 6.2424
0.00 0.00 0.00 2.6684 1.2629 1.0364 0.0000 0.0000 0.0000 -20.9387 -8.7933 -5.6366 6.7601 15.1265 47.9610 -0.9798 -17.3461 4.1270 0.9176 -6.1033 -17.0845 0.0000 0.0000 0.0000 20.3399 0.8970 -17.4597 -1.7103 -8.2345 23.4287 -0.0945 0.0812 -5.7755 -0.2202 -3.0207 8.3365 0.3971 1.4725 11.0106 0.6563 2.0251 2.3743 0.1753 1.0013 -3.7018 -10.3381 1.0398 -16.9633 2.4926 4.7212 41.1979 3.9478 0.6682 17.9281 -0.0000 0.0000 0.0000 -89.5845 5.8651 19.0572 19.9842 -30.6233 -5.5233 -0.0000 -0.0000 5.2696 19.3744 25.4331 8.5879 -7.1250 0.0000 -0.0000 -11.2878 56.3745 -3.1767 -0.0000 0.0000 0.0000 86.3106 -1.4538 13.9301 -21.5556 32.4711 -6.3456 0.0000 0.0000 2.4706 -12.1641 7.4408 -1.5990 7.1250 -0.0000 -0.0000 10.6626 -22.4087 5.8927
0.00 0.00 0.00 3.3117 -2.5688 0.2458 0.0000 0.0000 0.0000 -23.2103 -5.5978 5.6650 3.4548 11.3972 33.6314 -0.9937 -18.0989 12.4722 0.1228 -2.2593 -6.2229 0.0000 0.0000 0.0000 18.2521 4.7743 -20.6931 -2.0974 -9.0660 26.0021 -0.0315 1.2826 -3.1533 -0.2177 -3.0037 8.2891 -0.2244 1.4632 10.0241 0.3595 1.9302 2.0795 0.2513 0.9595 -3.4734 -8.7749 4.2456 -16.9226 1.9377 9.4637 42.4650 4.3293 2.6572 18.3146 -0.0000 0.0000 0.0000 -90.1182 6.8219 15.3362 15.8288 -25.2880 -3.5725 -0.0000 -0.0000 8.5865 18.3328 25.5825 8.1427 -7.1250 0.0000 -0.0000 -12.4483 56.3081 -3.4900 -0.0000 0.0000 0.0000 86.3668 -1.4061 14.8813 -22.6909 33.7491 -6.9658 0.0000 0.0000 1.8169 -13.2376 8.8247 -2.0668 7.1250 -0.0000 -0.0000 9.8216 -20.9737 5.7388
0.00 0.00 0.00 5.5602 -7.4900 0.1335 0.0000 0.0000 0.0000 -29.3638 -3.3184 11.0851 0.9743 6.2838 17.6102 -0.7213 -16.3976 -1.4073 0.0117 0.6985 1.9195 0.0000 0.0000 0.0000 13.5686 9.2667 -26.9398 -2.1372 -9.1461 26.2535 -0.0056 2.2711 3.6254 -0.3339 -3.7134 10.2718 -2.4437 1.1224 10.6570 -0.5771 1.1814 1.8334 0.6102 0.6116 -4.0985 -7.3352 6.6336 -17.5728 1.4720 12.7685 41.8738 4.4405 4.1440 18.0131 0.0000 0.0000 0.0000 -89.9319 3.3455 18.2572 13.7208 -22.3341 -2.7211 -0.0000 -0.0000 12.3939 20.5105 25.6657 9.2035 -7.1250 0.0000 -0.0000 -10.2043 56.8481 -2.9843 0.0000 0.0000 0.0000 86.8751 -1.5301 17.0136 -25.9844 37.1934 -8.8782 0.0000 0.0000 0.3173 -13.4760 7.6314 -1.8227 7.1250 -0.0000 -0.0000 9.7028 -22.1712 5.3997
0.00 0.00 0.00 5.0900 -17.5062 -2.1761 0.0000 0.0000 0.0000 -31.2100 -2.5471 1.9945 1.0084 6.3897 17.9193 0.0181 -11.0287 -8.0050 0.0250 -1.0210 -2.8065 0.0000 0.0000 0.0000 9.7389 9.9582 -28.6881 -5.4068 -13.8277 42.5517 -0.3384 3.7112 -10.3421 -1.2552 7.1026 -20.0196 -2.5251 1.3189 12.2545 -0.8133 1.3696 2.7663 0.3633 0.6900 -4.0063 -5.3480 11.3640 -18.2323 1.4227 19.5906 43.1920 5.4491 6.9801 18.7547 -0.0000 0.0000 0.0000 -87.2997 -6.0161 31.0397 18.2809 -28.5153 -4.6826 -0.0000 -0.0000 6.8331 19.5741 26.5480 9.0301 -7.1250 0.0000 -0.0000 -11.6411 57.5351 -3.6057 -0.0000 0.0000 0.0000 89.6204 -4.7837 10.1162 -17.7904 27.8879 -4.4508 0.0000 0.0000 3.3506 -14.8422 8.9038 -2.3487 7.1250 -0.0000 -0.0000 8.6696 -20.8195 5.0796
0.00 0.00 0.00 3.8185 -19.8888 -2.8173 0.0000 0.0000 0.0000 -29.4461 -3.0922 -1.1122 1.1852 6.9090 19.4461 -0.1434 -10.5701 -4.8647 0.0013 0.2301 0.6321 0.0000 0.0000 0.0000 11.2126 5.9709 -24.6343 -9.8712 -17.3368 59.0570 -0.3548 4.8541 -10.6327 -0.7732 5.6144 -15.6696 -1.6133 1.6083 11.7949 -0.7174 1.8808 2.5236 -0.1206 0.9360 -3.9953 -4.8850 12.3506 -18.0545 2.2531 20.6441 43.6450 5.9400 7.5683 18.8017 -0.0000 -0.0000 0.0000 -86.2430 -6.2692 33.3020 21.8506 -32.8078 -6.5047 -0.0000 -0.0000 4.1397 19.3946 25.5078 8.6207 -7.1250 0.0000 -0.0000 -11.3031 56.4538 -3.2029 -0.0000 -0.0000 0.0000 90.3027 -8.2985 5.8418 -13.7445 22.3682 -2.7301 0.0000 0.0000 8.0402 -14.1722 7.6828 -1.9336 7.1250 -0.0000 -0.0000 9.1961 -22.0926 5.1269
0.00 0.00 0.00 -3.8759 -48.4074 4.0455 0.0000 0.0000 0.0000 -19.7722 -18.2334 -9.0799 0.9644 6.2528 17.5196 -1.9578 -23.8421 8.8893 0.6734 5.2473 14.6154 0.0000 0.0000 0.0000 22.7928 -5.1903 -8.9108 -7.4774 -15.7211 50.6577 -0.2746 8.3685 -10.2823 -1.0754 6.5919 -18.5120 1.9920 6.9140 12.5012 -2.6059 9.2324 2.0451 -5.2335 4.5140 -4.0311 -3.9092 14.2797 -16.1907 4.5900 22.0284 46.1138 7.0378 8.3437 19.3681 -0.0000 -0.0000 0.0000 -81.3747 -1.3233 18.3356 30.7061 -41.4910 -11.8747 -0.0000 0.0000 -1.4441 22.0393 23.8097 9.2816 -7.1250 0.0000 -0.0000 -7.7828 55.2674 -1.9706 -0.0000 -0.0000 0.0000 89.5345 -8.4815 13.9410 -23.1799 34.2850 -7.2394 0.0000 0.0000 3.4458 -13.2122 10.5190 -2.4542 7.1250 -0.0000 -0.0000 9.7793 -19.2631 6.0945
0.00 0.00 0.00 -6.2400 -53.3938 8.3565 0.0000 0.0000 0.0000 -15.1266 -22.4973 -20.7942 0.9544 6.2211 17.4272 -1.1643 -18.8503 9.8494 0.0018 0.2734 0.7512 0.0000 0.0000 0.0000 26.8310 -6.9558 2.5556 -1.7280 -8.2750 23.5526 -0.6886 9.2442 -15.1990 -0.1050 2.0898 -5.7538 5.8806 7.8492 12.8099 -3.0527 10.9864 2.0175 -8.0171 5.3905 -3.2306 -4.4902 13.9942 -16.7635 3.9914 22.1774 46.6764 7.0371 8.0942 19.9535 -0.0000 0.0000 0.0000 -81.9872 2.2701 15.4600 28.0058 -39.1216 -10.1273 -0.0000 -0.0000 1.2609 20.0952 26.7147 9.3397 -7.1250 0.0000 -0.0000 -11.1730 57.8161 -3.5342 -0.0000 0.0000 0.0000 86.8107 -3.8565 17.9520 -26.6240 37.8182 -9.2676 0.0000 0.0000 2.5719 -13.9553 9.7731 -2.4154 7.1250 -0.0000 -0.0000 9.2763 -19.9792 5.6219
0.00 0.00 0.00 1.9089 -20.4531 4.6382 0.0000 0.0000 0.0000 -21.0501 5.6195 -20.1516 3.6230 11.6411 34.4740 -0.2042 11.7546 -13.4895 0.0982 -2.0209 -5.5633 0.0000 0.0000 0.0000 23.8071 -3.9787 -11.1268 -2.3126 -9.4889 27.3370 -0.2188 -15.3915 -23.9416 -0.0296 -1.1104 3.0526 1.9584 -2.3390 9.6973 2.4314 -2.7957 1.0098 1.8004 -1.4023 -4.3544 -11.8149 -0.0225 -9.4117 1.5657 1.8917 44.5194 3.1410 -1.2267 18.2528 -0.0000 0.0000 0.0000 -88.1836 9.6380 22.2485 27.9973 -39.1138 -10.1220 -0.0000 -0.0000 3.4246 19.7015 26.4705 9.0685 -7.1250 0.0000 -0.0000 -11.4652 57.4851 -3.5364 -0.0000 0.0000 0.0000 84.4810 -6.3490 17.2829 -23.2493 34.3603 -7.2785 0.0000 0.0000 4.2982 -13.6519 8.9586 -2.1660 7.1250 -0.0000 -0.0000 9.5200 -20.8197 5.5911
0.00 0.00 0.00 4.1748 1.3175 3.0352 0.0000 0.0000 0.0000 -24.7736 0.4369 -10.8324 1.7349 8.2905 23.5999 0.3559 1.4661 -11.8997 0.2267 -3.0649 -8.4594 0.0000 0.0000 0.0000 20.2163 -6.6456 -16.0162 -5.4408 -13.8636 42.6938 0.3172 -21.2794 -27.6913 -1.0545 -6.5295 18.3289 0.9927 -2.3017 8.9732 2.8106 -2.8317 0.6994 2.7150 -1.3958 -4.2074 -12.6246 -0.9596 -10.0670 0.8225 1.8072 44.4871 2.9914 -1.2922 18.5055 -0.0000 0.0000 0.0000 -88.1085 7.5289 22.3657 28.3089 -39.3990 -10.3191 -0.0000 -0.0000 0.4626 21.7346 25.3732 9.6940 -7.1250 0.0000 -0.0000 -8.7677 56.8115 -2.5516 -0.0000 0.0000 0.0000 82.4653 -7.5960 13.4976 -20.3290 31.0367 -5.7000 0.0000 0.0000 4.9413 -13.5050 7.7013 -1.8434 7.1250 -0.0000 -0.0000 9.6785 -22.0994 5.4018
0.00 0.00 0.00 168.7690 50.1121 171.7890 0.0000 0.0000 0.0000 -28.0315 7.5815 16.8475 0.0564 1.5327 4.2159 -0.2291 -9.2242 -0.5671 0.0344 -1.1970 -3.2911 0.0000 0.0000 0.0000 14.1993 9.8916 -26.2225 -2.3161 -9.4956 27.3583 0.0063 -1.4180 -0.6580 -0.4253 -4.1857 11.5996 -6.9980 -4.6243 9.4528 2.2435 -6.7464 0.5119 7.0625 -3.2067 -3.6613 -16.0881 -14.9549 0.2436 5.9649 -19.2554 39.4909 2.6556 -8.9768 16.6339 0.0000 0.0000 0.0000 -89.1672 1.5790 22.4916 21.8491 -32.8061 -6.5039 -0.0000 -0.0000 5.5948 20.3668 26.0407 9.2565 -7.1250 0.0000 -0.0000 -10.5396 57.1965 -3.1729 0.0000 0.0000 0.0000 86.0192 -4.4873 14.0582 -21.5162 32.4260 -6.3245 0.0000 0.0000 0.4860 -15.6266 8.1500 -2.2707 7.1250 -0.0000 -0.0000 8.1273 -21.5540 4.6188
0.00 0.00 0.00 1.7311 32.5067 362.1010 0.0000 0.0000 0.0000 -17.4289 -21.5707 -9.2363 1.3875 7.4528 21.0640 -2.4083 -29.2544 25.7134 3.4934 11.4539 33.8263 0.0000 0.0000 0.0000 14.6508 14.8702 -5.7205 -2.5104 -9.8567 28.5141 0.5217 23.6817 -12.8027 -0.0260 1.0400 -2.8588 2.2134 -0.0579 10.8010 1.7355 0.2827 1.8837 0.5187 0.1313 -4.0889 -12.9180 -2.0911 -9.5221 2.0186 0.7499 44.3301 3.5401 -1.2730 18.3737 0.0000 -0.0000 0.0000 -83.9921 6.8893 12.4655 29.7354 -40.6655 -11.2368 -0.0000 -0.0000 0.7840 22.7407 27.3161 10.8876 -7.1250 0.0000 -0.0000 -8.6092 59.0231 -2.9640 0.0000 -0.0000 0.0000 84.0685 -3.6440 21.8571 -23.6910 34.8358 -7.5293 0.0000 0.0000 1.5579 -16.4258 7.1560 -2.1032 7.1250 -0.0000 -0.0000 7.5761 -22.5421 4.1281
0.00 0.00 0.00 158.7640 -78.7914 558.0180 0.0000 0.0000 0.0000 -24.6873 -9.8576 -1.9631 0.8571 5.9039 16.5060 -3.2052 -31.2337 23.0670 3.4095 11.3302 33.4018 0.0000 0.0000 0.0000 11.7770 16.2972 -5.9042 -5.7989 -14.2306 44.1693 -0.8149 10.5185 -16.6442 -0.0093 0.6231 -1.7122 -0.7068 1.8283 10.1078 -0.4333 2.2850 1.1241 -0.3672 1.1192 -4.5037 -9.6337 1.3153 -14.7030 2.8085 2.1908 40.1895 3.1905 -0.8357 16.9378 0.0000 -0.0000 0.0000 -82.8718 4.3032 13.9602 25.7084 -36.9193 -8.7119 -0.0000 0.0000 -1.6427 20.4513 25.7332 9.1971 -7.1250 0.0000 -0.0000 -10.2996 56.9039 -3.0265 0.0000 -0.0000 0.0000 87.6100 -6.8662 17.3001 -19.5628 30.1120 -5.3103 0.0000 0.0000 4.5103 -15.2942 8.2046 -2.2348 7.1250 -0.0000 -0.0000 8.3656 -21.5132 4.7650
0.00 0.00 0.00 13.5071 -78.8683 705.6730 0.0000 0.0000 0.0000 -19.5383 -20.2912 -6.9848 1.2458 7.0770 19.9437 0.5446 -27.0136 40.4960 6.2041 14.6233 45.7956 0.0000 0.0000 0.0000 13.9533 20.6817 -4.3971 -3.8753 -11.9926 35.7057 0.9995 25.4583 -10.6593 -0.1338 -2.3579 6.4959 0.4382 2.5041 10.3180 -0.5619 3.2959 1.8629 -1.2673 1.6034 -3.7776 -9.8073 1.8335 -14.2750 2.1126 3.6955 42.3808 3.2683 -0.3435 17.9886 0.0000 -0.0000 0.0000 -80.3573 4.3384 7.3449 26.0226 -37.2310 -8.9013 -0.0000 0.0000 -4.0893 22.5438 28.3320 11.1447 -7.1250 0.0000 -0.0000 -9.3688 60.0111 -3.4499 0.0000 -0.0000 0.0000 85.6076 -4.8877 18.8357 -21.6835 32.6175 -6.4144 0.0000 0.0000 1.8887 -16.0087 8.6191 -2.4621 7.1250 -0.0000 -0.0000 7.8394 -21.0539 4.5418
